<?xml version="1.0" encoding="iso-8859-1"?>
<!-- Generator: Adobe Illustrator 18.1.1, SVG Export Plug-In . SVG Version: 6.00 Build 0)  -->
<svg version="1.1" id="Capa_1" xmlns="http://www.w3.org/2000/svg" xmlns:xlink="http://www.w3.org/1999/xlink" x="0px" y="0px"
	 viewBox="0 0 412 412" style="enable-background:new 0 0 412 412;" xml:space="preserve">
<g>
	<g>
		<path style="fill:#090509;" d="M355.75,237c-10-10-24-10-34,0l-92,91V24c0-14-10-24-24-24s-25,10-25,24v304l-91-91
			c-10-10-24-10-34,0s-10,25,0,35l133,133c5,5,10,7,17,7s12-2,17-7l133-133c5-5,8-12,8-18S360.75,242,355.75,237z"/>
	</g>
</g>
<g>
</g>
<g>
</g>
<g>
</g>
<g>
</g>
<g>
</g>
<g>
</g>
<g>
</g>
<g>
</g>
<g>
</g>
<g>
</g>
<g>
</g>
<g>
</g>
<g>
</g>
<g>
</g>
<g>
</g>
</svg>
