<?xml version="1.0" encoding="iso-8859-1"?>
<!-- Generator: Adobe Illustrator 18.1.1, SVG Export Plug-In . SVG Version: 6.00 Build 0)  -->
<svg version="1.1" id="Capa_1" xmlns="http://www.w3.org/2000/svg" xmlns:xlink="http://www.w3.org/1999/xlink" x="0px" y="0px"
	 viewBox="0 0 431.38 431.38" style="enable-background:new 0 0 431.38 431.38;" xml:space="preserve">
<g>
	<g>
		<path style="fill:#090509;" d="M425,200.751l-165-166c-14-14-37-2-37,16v74H22c-12,0-22,10-22,22v138c0,12,10,22,22,22h201v74
			c0,11,9,22,22,22c6,0,11-3,15-7c0,0,158-157,165-164C433,223.75,434,209.751,425,200.751z M267,327.75v-43c0-12-10-22-22-22H44
			v-94h201c12,0,22-10,22-22v-44l112,113L267,327.75z"/>
	</g>
</g>
<g>
</g>
<g>
</g>
<g>
</g>
<g>
</g>
<g>
</g>
<g>
</g>
<g>
</g>
<g>
</g>
<g>
</g>
<g>
</g>
<g>
</g>
<g>
</g>
<g>
</g>
<g>
</g>
<g>
</g>
</svg>
