<?xml version="1.0" encoding="iso-8859-1"?>
<!-- Generator: Adobe Illustrator 18.1.1, SVG Export Plug-In . SVG Version: 6.00 Build 0)  -->
<svg version="1.1" id="Capa_1" xmlns="http://www.w3.org/2000/svg" xmlns:xlink="http://www.w3.org/1999/xlink" x="0px" y="0px"
	 viewBox="0 0 493.871 493.871" style="enable-background:new 0 0 493.871 493.871;" xml:space="preserve">
<g>
	<g>
		<path style="fill:#010002;" d="M474.298,174.792l-143-11l-64-141c-4-8-11-12-20-12s-16,4-20,12l-64,141l-143,11c-18,1-28,25-13,38
			l120,101l-40,141c-2,9,1,19,8,24s16,6,24,1l128-83l127,83c4,2,8,3,12,3c15,0,25-15,21-28l-40-141l119-101
			C501.298,199.792,492.298,175.792,474.298,174.792z M328.298,289.792c-7,6-8,14-6,22l28,100l-91-59c-4-2-8-4-12-4s-8,2-12,4
			l-91,59l28-100c2-8,0-16-7-22l-89-76l103-7c8-1,15-6,18-13l50-109l50,109c3,7,10,12,18,13l103,7L328.298,289.792z"/>
	</g>
</g>
<g>
</g>
<g>
</g>
<g>
</g>
<g>
</g>
<g>
</g>
<g>
</g>
<g>
</g>
<g>
</g>
<g>
</g>
<g>
</g>
<g>
</g>
<g>
</g>
<g>
</g>
<g>
</g>
<g>
</g>
</svg>
