<?xml version="1.0" encoding="iso-8859-1"?>
<!-- Generator: Adobe Illustrator 18.1.1, SVG Export Plug-In . SVG Version: 6.00 Build 0)  -->
<svg version="1.1" id="Capa_1" xmlns="http://www.w3.org/2000/svg" xmlns:xlink="http://www.w3.org/1999/xlink" x="0px" y="0px"
	 viewBox="0 0 509.75 509.75" style="enable-background:new 0 0 509.75 509.75;" xml:space="preserve">
<g>
	<g>
		<path style="fill:#010002;" d="M503,196.375c9,9,9,25,0,34l-84,84c-5,5-11,7-17,7s-12-2-17-7l-84-84c-9-9-9-25,0-34s25-9,34,0
			l47,47c-6-87-79-155-167-155c-92,0-167,75-167,167s75,167,167,167c34,0,67-10,95-29c11-8,26-5,34,6s4,26-7,34c-36,25-78,37-122,37
			c-119,0-215-96-215-215s96-216,215-216c112,0,205,87,215,196l39-39C478,187.375,494,187.375,503,196.375z"/>
	</g>
</g>
<g>
</g>
<g>
</g>
<g>
</g>
<g>
</g>
<g>
</g>
<g>
</g>
<g>
</g>
<g>
</g>
<g>
</g>
<g>
</g>
<g>
</g>
<g>
</g>
<g>
</g>
<g>
</g>
<g>
</g>
</svg>
