<?xml version="1.0" encoding="iso-8859-1"?>
<!-- Generator: Adobe Illustrator 18.1.1, SVG Export Plug-In . SVG Version: 6.00 Build 0)  -->
<svg version="1.1" id="Capa_1" xmlns="http://www.w3.org/2000/svg" xmlns:xlink="http://www.w3.org/1999/xlink" x="0px" y="0px"
	 viewBox="0 0 494 494" style="enable-background:new 0 0 494 494;" xml:space="preserve">
<g>
	<g>
		<path style="fill:#010002;" d="M143,148c15,0,27-12,27-27V52c0-15-12-27-27-27s-27,12-27,27v69C116,136,128,148,143,148z"/>
		<path style="fill:#010002;" d="M351,148c15,0,27-12,27-27V52c0-15-12-27-27-27s-27,12-27,27v69C324,136,336,148,351,148z"/>
		<path style="fill:#010002;" d="M472,65h-50c-12,0-22,9-22,21s10,22,22,22h29v89H43v-89h29c12,0,21-10,21-22s-9-21-21-21H21
			C9,65,0,74,0,86v361c0,12,9,22,21,22h451c12,0,22-10,22-22V86C494,74,484,65,472,65z M451,425H43V229h408V425z"/>
		<path style="fill:#010002;" d="M213,108h68c12,0,22-10,22-22s-10-21-22-21h-68c-12,0-22,9-22,21S201,108,213,108z"/>
	</g>
</g>
<g>
</g>
<g>
</g>
<g>
</g>
<g>
</g>
<g>
</g>
<g>
</g>
<g>
</g>
<g>
</g>
<g>
</g>
<g>
</g>
<g>
</g>
<g>
</g>
<g>
</g>
<g>
</g>
<g>
</g>
</svg>
