<?xml version="1.0" encoding="iso-8859-1"?>
<!-- Generator: Adobe Illustrator 18.1.1, SVG Export Plug-In . SVG Version: 6.00 Build 0)  -->
<svg version="1.1" id="Capa_1" xmlns="http://www.w3.org/2000/svg" xmlns:xlink="http://www.w3.org/1999/xlink" x="0px" y="0px"
	 viewBox="0 0 431.38 431.38" style="enable-background:new 0 0 431.38 431.38;" xml:space="preserve">
<g>
	<g>
		<path style="fill:#090509;" d="M381.015,223h-74V22c0-12-10-22-22-22h-138c-12,0-22,10-22,22v201h-74c-11,0-22,9-22,22
			c0,6,2,11,6,15l165,165c8,8,22,9,31,0l165-165C410.015,246,399.015,223,381.015,223z M216.015,379l-113-112h44c12,0,22-10,22-22
			V44h94v201c0,12,10,22,22,22h43L216.015,379z"/>
	</g>
</g>
<g>
</g>
<g>
</g>
<g>
</g>
<g>
</g>
<g>
</g>
<g>
</g>
<g>
</g>
<g>
</g>
<g>
</g>
<g>
</g>
<g>
</g>
<g>
</g>
<g>
</g>
<g>
</g>
<g>
</g>
</svg>
