<?xml version="1.0" encoding="iso-8859-1"?>
<!-- Generator: Adobe Illustrator 18.1.1, SVG Export Plug-In . SVG Version: 6.00 Build 0)  -->
<svg version="1.1" id="Capa_1" xmlns="http://www.w3.org/2000/svg" xmlns:xlink="http://www.w3.org/1999/xlink" x="0px" y="0px"
	 viewBox="0 0 510.5 510.5" style="enable-background:new 0 0 510.5 510.5;" xml:space="preserve">
<g>
	<g>
		<path style="fill:#010002;" d="M506.75,244.25c-4-6-93-137-251-137s-248,131-252,137c-5,7-5,15,0,22c4,6,94,137,252,137
			s247-131,251-137C511.75,259.25,511.75,251.25,506.75,244.25z M255.75,363.25c-111,0-186-78-210-108c24-30,99-108,210-108
			s185,78,209,108C440.75,285.25,366.75,363.25,255.75,363.25z"/>
		<path style="fill:#010002;" d="M255.75,161.25c-20,0-40,7-56,19c-41,31-50,90-19,131c18,24,45,38,75,38c20,0,40-7,56-19
			c38-28,52-87,19-131C312.75,175.25,285.75,161.25,255.75,161.25z M255.75,319.25c-20,0-39-10-51-26c-21-28-15-68,13-89
			c11-8,24-13,38-13c20,0,39,10,51,26C338.75,259.25,306.75,319.25,255.75,319.25z"/>
		<path style="fill:#010002;" d="M276.75,213.25c-11,0-20,10-20,21s9,20,20,20s20-9,20-20S287.75,213.25,276.75,213.25z"/>
	</g>
</g>
<g>
</g>
<g>
</g>
<g>
</g>
<g>
</g>
<g>
</g>
<g>
</g>
<g>
</g>
<g>
</g>
<g>
</g>
<g>
</g>
<g>
</g>
<g>
</g>
<g>
</g>
<g>
</g>
<g>
</g>
</svg>
