<?xml version="1.0" encoding="iso-8859-1"?>
<!-- Generator: Adobe Illustrator 18.1.1, SVG Export Plug-In . SVG Version: 6.00 Build 0)  -->
<svg version="1.1" id="Capa_1" xmlns="http://www.w3.org/2000/svg" xmlns:xlink="http://www.w3.org/1999/xlink" x="0px" y="0px"
	 viewBox="0 0 494 494" style="enable-background:new 0 0 494 494;" xml:space="preserve">
<g>
	<g>
		<path style="fill:#090509;" d="M247,0C111,0,0,111,0,247s111,247,247,247s247-111,247-247S383,0,247,0z M351,72c31,18,55,44,73,75
			l-58,23c-10-16-24-29-39-40L351,72z M350,247c0,57-46,103-103,103s-104-46-104-103s47-104,104-104S350,190,350,247z M247,43
			c28,0,55,6,79,16l-23,58c-17-8-36-12-56-12c-18,0-36,4-52,10l-23-57C195,49,220,43,247,43z M147,69l23,59c-16,10-29,24-40,39
			l-58-24C90,112,116,87,147,69z M43,247c0-28,6-55,16-79l58,23c-8,17-12,36-12,56c0,18,4,36,10,52l-57,23C49,299,43,274,43,247z
			 M143,422c-31-18-56-44-74-75l59-24c10,16,24,29,39,40L143,422z M247,451c-28,0-55-6-79-16l23-58c17,8,36,12,56,12
			c18,0,36-4,52-10l23,57C299,445,274,451,247,451z M347,424l-24-58c16-10,29-24,40-39l59,24C404,382,378,406,347,424z M377,303
			c8-17,12-36,12-56c0-18-4-36-10-52l57-23c9,23,15,48,15,75c0,28-6,55-16,79L377,303z"/>
	</g>
</g>
<g>
</g>
<g>
</g>
<g>
</g>
<g>
</g>
<g>
</g>
<g>
</g>
<g>
</g>
<g>
</g>
<g>
</g>
<g>
</g>
<g>
</g>
<g>
</g>
<g>
</g>
<g>
</g>
<g>
</g>
</svg>
