<?xml version="1.0" encoding="iso-8859-1"?>
<!-- Generator: Adobe Illustrator 18.1.1, SVG Export Plug-In . SVG Version: 6.00 Build 0)  -->
<svg version="1.1" id="Capa_1" xmlns="http://www.w3.org/2000/svg" xmlns:xlink="http://www.w3.org/1999/xlink" x="0px" y="0px"
	 viewBox="0 0 485.38 485.38" style="enable-background:new 0 0 485.38 485.38;" xml:space="preserve">
<g>
	<path style="fill:#010002;" d="M479,227.751l-165-166c-14-14-37-2-37,16v75c-86,4-154,30-203,79c-74,74-74,172-74,176
		c0,11,9,22,22,22c8,0,15-4,19-11c43-76,154-87,217-87h19v76c0,18,23,29,37,15c0,0,158-157,165-164
		C487,250.751,488,236.751,479,227.751z M321,354.751v-43c0-11-9-21-20-22c-1,0-17-2-43-2c-54,0-139,8-201,51c23-62,83-143,242-143
		c12,0,22-10,22-22v-44l112,113L321,354.751z"/>
</g>
<g>
</g>
<g>
</g>
<g>
</g>
<g>
</g>
<g>
</g>
<g>
</g>
<g>
</g>
<g>
</g>
<g>
</g>
<g>
</g>
<g>
</g>
<g>
</g>
<g>
</g>
<g>
</g>
<g>
</g>
</svg>
