<?xml version="1.0" encoding="iso-8859-1"?>
<!-- Generator: Adobe Illustrator 18.1.1, SVG Export Plug-In . SVG Version: 6.00 Build 0)  -->
<svg version="1.1" id="Capa_1" xmlns="http://www.w3.org/2000/svg" xmlns:xlink="http://www.w3.org/1999/xlink" x="0px" y="0px"
	 viewBox="0 0 510 510" style="enable-background:new 0 0 510 510;" xml:space="preserve">
<g>
	<g>
		<g>
			<path style="fill:#090509;" d="M462,40H48C18,40,0,58,0,88v228c0,30,18,48,48,48h137v41l-48,40c-10,8-3,25,9,25h217
				c12,0,19-17,9-25l-49-40v-41h139c30,0,48-18,48-48V88C510,58,492,40,462,40z M324,442H184l24-19c3-3,5-7,5-11v-48h82v48
				c0,6,3,11,8,13L324,442z M482,316c0,15-5,20-20,20H48c-15,0-20-5-20-20V88c0-15,5-20,20-20h414c15,0,20,5,20,20V316z"/>
			<path style="fill:#090509;" d="M452,90H56c-5,0-9,5-9,10v204c0,5,4,9,9,9h396c5,0,9-4,9-9V100C461,95,457,90,452,90z M442,294H65
				V109h377V294z"/>
		</g>
	</g>
</g>
<g>
</g>
<g>
</g>
<g>
</g>
<g>
</g>
<g>
</g>
<g>
</g>
<g>
</g>
<g>
</g>
<g>
</g>
<g>
</g>
<g>
</g>
<g>
</g>
<g>
</g>
<g>
</g>
<g>
</g>
</svg>
