<?xml version="1.0" encoding="iso-8859-1"?>
<!-- Generator: Adobe Illustrator 18.1.1, SVG Export Plug-In . SVG Version: 6.00 Build 0)  -->
<svg version="1.1" id="Capa_1" xmlns="http://www.w3.org/2000/svg" xmlns:xlink="http://www.w3.org/1999/xlink" x="0px" y="0px"
	 viewBox="0 0 510 510" style="enable-background:new 0 0 510 510;" xml:space="preserve">
<g>
	<g>
		<g>
			<path style="fill:#090509;" d="M454,165.038c12-38-22-79-52-79c-14,0-33,8-44,14c-34-6-71-8-106-8c-49,0-85,5-100,8
				c-12-6-32-15-46-14c-28,2-62,41-50,79c-13,30-56,138-56,205c0,30,23,54,53,54c22,0,44-12,63-34c15-17,41-49,54-66c17,4,49,9,88,9
				c29,0,56-3,82-9c13,17,39,49,54,66c19,22,41,34,63,34c30,0,53-23,53-54C510,302.038,467,195.038,454,165.038z M457,383.038
				c-10,0-22-7-33-19c-20-23-60-74-60-75c-4-5-10-8-16-8c-2,0-4,0-6,1c-26,8-54,11-84,11c-51,0-90-11-90-11c-8-2-17,0-22,7
				c0,1-40,52-60,75c-11,12-23,19-33,19c-8,0-13-5-13-13c0-69,55-195,56-196c2-5,3-12,0-17c-7-14,7-28,13-31c5,1,19,7,30,13
				c4,2,10,3,15,2c0,0,39-9,98-9c35,0,71,3,105,9c5,1,9,0,13-2c11-6,26-12,31-13c3,1,11,7,14,15c5,11-6,21-1,33c1,1,56,127,56,196
				C470,379.038,465,383.038,457,383.038z"/>
			<path style="fill:#090509;" d="M320,159.038c-15,0-28,13-28,28s13,28,28,28s28-13,28-28S335,159.038,320,159.038z"/>
			<path style="fill:#090509;" d="M377,203.038c-15,0-28,13-28,28s13,27,28,27s28-12,28-27S392,203.038,377,203.038z"/>
			<path style="fill:#090509;" d="M187,194.038h-17v-17c0-7-5-12-12-12s-13,5-13,12v17h-16c-7,0-13,5-13,12s6,13,13,13h16v16
				c0,7,6,13,13,13s12-6,12-13v-16h17c7,0,12-6,12-13S194,194.038,187,194.038z"/>
		</g>
	</g>
</g>
<g>
</g>
<g>
</g>
<g>
</g>
<g>
</g>
<g>
</g>
<g>
</g>
<g>
</g>
<g>
</g>
<g>
</g>
<g>
</g>
<g>
</g>
<g>
</g>
<g>
</g>
<g>
</g>
<g>
</g>
</svg>
