<?xml version="1.0" encoding="iso-8859-1"?>
<!-- Generator: Adobe Illustrator 18.1.1, SVG Export Plug-In . SVG Version: 6.00 Build 0)  -->
<svg version="1.1" id="Capa_1" xmlns="http://www.w3.org/2000/svg" xmlns:xlink="http://www.w3.org/1999/xlink" x="0px" y="0px"
	 viewBox="0 0 510 510" style="enable-background:new 0 0 510 510;" xml:space="preserve">
<g>
	<g>
		<g>
			<path style="fill:#010002;" d="M231,212V19c0-11-9-19-19-19C95,0,0,95,0,212c0,10,9,19,19,19h193C222,231,231,222,231,212z
				 M193,193H39c9-81,73-145,154-154V193z"/>
			<path style="fill:#010002;" d="M282,34c-12,0-22,10-22,22v204H56c-12,0-22,10-22,22c0,126,107,228,238,228s238-107,238-238
				C510,143,405,34,282,34z M272,466c-99,0-182-71-193-162h203c12,0,22-10,22-22V79c90,12,162,95,162,193C466,379,379,466,272,466z"
				/>
		</g>
	</g>
</g>
<g>
</g>
<g>
</g>
<g>
</g>
<g>
</g>
<g>
</g>
<g>
</g>
<g>
</g>
<g>
</g>
<g>
</g>
<g>
</g>
<g>
</g>
<g>
</g>
<g>
</g>
<g>
</g>
<g>
</g>
</svg>
