<?xml version="1.0" encoding="iso-8859-1"?>
<!-- Generator: Adobe Illustrator 18.1.1, SVG Export Plug-In . SVG Version: 6.00 Build 0)  -->
<svg version="1.1" id="Capa_1" xmlns="http://www.w3.org/2000/svg" xmlns:xlink="http://www.w3.org/1999/xlink" x="0px" y="0px"
	 viewBox="0 0 510.007 510.007" style="enable-background:new 0 0 510.007 510.007;" xml:space="preserve">
<g>
	<g>
		<g>
			<path style="fill:#090509;" d="M423.004,70.007c-44-45-103-70-166-70c-130-1-236,104-237,234l-1,141c0,12,8,21,20,21h1
				c11,0,20-9,20-21l2-141c1-106,87-192,193-192c53,0,102,21,139,58c36,37,55,85,55,137l-1,141c0,12,9,21,21,21c11,0,21-10,21-21
				l1-141C491.004,174.007,467.004,115.007,423.004,70.007z"/>
			<path style="fill:#090509;" d="M331.004,239.007c-10,0-19,8-19,18l-1,234c0,10,8,19,18,19h1c72,0,92-45,92-69l1-132
				c0-2,0-19-12-36C400.004,258.007,377.004,239.007,331.004,239.007z M386.004,440.007c0,5-4,27-39,32l2-195c35,6,38,27,38,32
				L386.004,440.007z"/>
			<path style="fill:#090509;" d="M184.004,238.007h-1c-72,0-92,45-92,69l-1,131c0,2,0,20,12,37c11,15,34,34,80,34c10,0,18-8,18-18
				l2-235C202.004,246.007,194.004,238.007,184.004,238.007z M164.004,471.007c-35-6-38-27-38-32l1-132c0-5,4-26,39-31
				L164.004,471.007z"/>
		</g>
	</g>
</g>
<g>
</g>
<g>
</g>
<g>
</g>
<g>
</g>
<g>
</g>
<g>
</g>
<g>
</g>
<g>
</g>
<g>
</g>
<g>
</g>
<g>
</g>
<g>
</g>
<g>
</g>
<g>
</g>
<g>
</g>
</svg>
