<?xml version="1.0" encoding="iso-8859-1"?>
<!-- Generator: Adobe Illustrator 18.1.1, SVG Export Plug-In . SVG Version: 6.00 Build 0)  -->
<svg version="1.1" id="Capa_1" xmlns="http://www.w3.org/2000/svg" xmlns:xlink="http://www.w3.org/1999/xlink" x="0px" y="0px"
	 viewBox="0 0 495.018 495.018" style="enable-background:new 0 0 495.018 495.018;" xml:space="preserve">
<g>
	<g>
		<g>
			<path style="fill:#010002;" d="M482.509,110.509c-23-52-73-86-126-86c-54,0-89,24-109,50c-20-26-55-50-109-50
				c-53,0-103,34-126,86c-24,54-13,113,29,160c101,113,190,193,191,194c4,4,10,6,15,6s10-2,14-6c1-1,91-81,192-194
				C495.509,223.509,506.509,164.509,482.509,110.509z M421.509,241.509c-76,84-145,151-174,178c-29-27-98-94-174-178
				c-30-34-38-75-21-113c16-36,50-60,86-60c70,0,86,52,88,58c2,10,11,16,21,16s19-6,21-16c1-2,16-58,88-58c36,0,70,24,86,60
				C459.509,166.509,451.509,207.509,421.509,241.509z"/>
			<path style="fill:#010002;" d="M355.509,91.509c-12-2-22,7-24,19s6,22,18,24c1,0,28,5,31,43c1,12,11,20,22,20c13,0,22-11,21-23
				C419.509,115.509,377.509,94.509,355.509,91.509z"/>
			<path style="fill:#010002;" d="M375.509,207.509c-12,0-21,10-21,22s9,21,21,21s22-9,22-21S387.509,207.509,375.509,207.509z"/>
		</g>
	</g>
</g>
<g>
</g>
<g>
</g>
<g>
</g>
<g>
</g>
<g>
</g>
<g>
</g>
<g>
</g>
<g>
</g>
<g>
</g>
<g>
</g>
<g>
</g>
<g>
</g>
<g>
</g>
<g>
</g>
<g>
</g>
</svg>
