<?xml version="1.0" encoding="iso-8859-1"?>
<!-- Generator: Adobe Illustrator 18.1.1, SVG Export Plug-In . SVG Version: 6.00 Build 0)  -->
<svg version="1.1" id="Capa_1" xmlns="http://www.w3.org/2000/svg" xmlns:xlink="http://www.w3.org/1999/xlink" x="0px" y="0px"
	 viewBox="0 0 494 494" style="enable-background:new 0 0 494 494;" xml:space="preserve">
<g>
	<path style="fill:#010002;" d="M482.5,226c9,9,9,23,0,31c-4,4-9,6-15,6s-11-2-15-6l-205-205l-205,205c-8,9-22,9-31,0
		c-9-8-9-22,0-31l221-220c4-4,9-6,15-6s11,2,15,6L482.5,226z"/>
	<path style="fill:#010002;" d="M399.5,241c12,0,21,10,21,22v209c0,12-9,22-21,22h-100c-12,0-22-10-22-22V340h-61v132
		c0,12-9,22-21,22h-100c-12,0-22-10-22-22V263c0-12,10-22,22-22s22,10,22,22v188h56V318c0-12,10-22,22-22h104c12,0,22,10,22,22v133
		h56V263C377.5,251,387.5,241,399.5,241z"/>
</g>
<g>
</g>
<g>
</g>
<g>
</g>
<g>
</g>
<g>
</g>
<g>
</g>
<g>
</g>
<g>
</g>
<g>
</g>
<g>
</g>
<g>
</g>
<g>
</g>
<g>
</g>
<g>
</g>
<g>
</g>
</svg>
