<?xml version="1.0" encoding="iso-8859-1"?>
<!-- Generator: Adobe Illustrator 18.1.1, SVG Export Plug-In . SVG Version: 6.00 Build 0)  -->
<svg version="1.1" id="Capa_1" xmlns="http://www.w3.org/2000/svg" xmlns:xlink="http://www.w3.org/1999/xlink" x="0px" y="0px"
	 viewBox="0 0 441 441" style="enable-background:new 0 0 441 441;" xml:space="preserve">
<g>
	<g>
		<path style="fill:#090509;" d="M25,68.5h392c14,0,24-11,24-25s-10-24-24-24H25c-14,0-25,10-25,24S11,68.5,25,68.5z"/>
		<path style="fill:#090509;" d="M221,372.5H26c-14,0-24,10-24,24s10,25,24,25h195c14,0,24-11,24-25S235,372.5,221,372.5z"/>
		<path style="fill:#090509;" d="M417,254.5H25c-14,0-25,11-25,25s11,24,25,24h392c14,0,24-10,24-24S431,254.5,417,254.5z"/>
		<path style="fill:#090509;" d="M417,137.5H25c-14,0-25,10-25,24s11,25,25,25h392c14,0,24-11,24-25S431,137.5,417,137.5z"/>
	</g>
</g>
<g>
</g>
<g>
</g>
<g>
</g>
<g>
</g>
<g>
</g>
<g>
</g>
<g>
</g>
<g>
</g>
<g>
</g>
<g>
</g>
<g>
</g>
<g>
</g>
<g>
</g>
<g>
</g>
<g>
</g>
</svg>
