<?xml version="1.0" encoding="iso-8859-1"?>
<!-- Generator: Adobe Illustrator 18.1.1, SVG Export Plug-In . SVG Version: 6.00 Build 0)  -->
<svg version="1.1" id="Capa_1" xmlns="http://www.w3.org/2000/svg" xmlns:xlink="http://www.w3.org/1999/xlink" x="0px" y="0px"
	 viewBox="0 0 494 494" style="enable-background:new 0 0 494 494;" xml:space="preserve">
<g>
	<g>
		<g>
			<path style="fill:#010002;" d="M398,176h-12c0-34-5-95-42-136c-24-27-57-40-97-40s-73,13-97,40c-37,41-42,102-42,136H95
				c-12,0-21,9-21,21v275c0,12,9,22,21,22h303c12,0,22-10,22-22V197C420,185,410,176,398,176z M183,69c15-17,36-26,64-26s49,9,64,26
				c27,30,31,80,31,107H152C152,149,156,99,183,69z M377,451H117V219h260V451z"/>
			<path style="fill:#010002;" d="M208,405h78c7,0,14-7,11-15l-22-55c4-6,10-18,10-29c0-20-14-41-38-41s-37,21-37,41
				c0,11,6,23,10,29l-22,55C195,398,201,405,208,405z M240,326c-2-3-8-13-8-20c0,0,0-20,15-20s16,20,16,20c0,7-6,17-8,20s-3,7-2,11
				l18,46h-47l18-46C243,333,243,329,240,326z"/>
		</g>
	</g>
</g>
<g>
</g>
<g>
</g>
<g>
</g>
<g>
</g>
<g>
</g>
<g>
</g>
<g>
</g>
<g>
</g>
<g>
</g>
<g>
</g>
<g>
</g>
<g>
</g>
<g>
</g>
<g>
</g>
<g>
</g>
</svg>
