<?xml version="1.0" encoding="iso-8859-1"?>
<!-- Generator: Adobe Illustrator 18.1.1, SVG Export Plug-In . SVG Version: 6.00 Build 0)  -->
<svg version="1.1" id="Capa_1" xmlns="http://www.w3.org/2000/svg" xmlns:xlink="http://www.w3.org/1999/xlink" x="0px" y="0px"
	 viewBox="0 0 456 456" style="enable-background:new 0 0 456 456;" xml:space="preserve">
<g>
	<g>
		<g>
			<path style="fill:#010002;" d="M228,0C151,0,61,46,61,174c0,124,146,269,152,275c4,4,9,7,15,7s11-3,15-7c6-6,152-151,152-275
				C395,46,305,0,228,0z M228,402c-36-39-123-143-123-228c0-121,94-130,123-130s123,9,123,130C351,259,264,363,228,402z"/>
			<path style="fill:#010002;" d="M228,80c-47,0-86,39-86,86c0,48,39,86,86,86s86-38,86-86S275,80,228,80z M228,220
				c-29,0-54-25-54-54s25-53,54-53s53,24,53,53S257,220,228,220z"/>
		</g>
	</g>
</g>
<g>
</g>
<g>
</g>
<g>
</g>
<g>
</g>
<g>
</g>
<g>
</g>
<g>
</g>
<g>
</g>
<g>
</g>
<g>
</g>
<g>
</g>
<g>
</g>
<g>
</g>
<g>
</g>
<g>
</g>
</svg>
