<?xml version="1.0" encoding="iso-8859-1"?>
<!-- Generator: Adobe Illustrator 18.1.1, SVG Export Plug-In . SVG Version: 6.00 Build 0)  -->
<svg version="1.1" id="Capa_1" xmlns="http://www.w3.org/2000/svg" xmlns:xlink="http://www.w3.org/1999/xlink" x="0px" y="0px"
	 viewBox="0 0 510 510" style="enable-background:new 0 0 510 510;" xml:space="preserve">
<g>
	<g>
		<g>
			<path style="fill:#090509;" d="M220,341l68,1h1c24,0,48-24,48-48l2-245c0-24-24-48-48-48l-68-1c-24,0-49,24-49,48l-2,244
				C172,316,196,341,220,341z M214,49c0-3,7-9,9-9l67,1c3,0,9,6,9,8l-2,244c0,3-6,7-9,8h-67c-3,0-9-6-9-8L214,49z"/>
			<path style="fill:#090509;" d="M360,475l-89-1v-50c0-10-7-18-17-18s-18,8-18,18v50l-90-1c-10,0-18,7-18,17s8,18,18,18
				c71,1,143,1,214,2c10,0,18-8,18-18S370,475,360,475z"/>
			<path style="fill:#090509;" d="M377,161h-1c-10,0-17,7-17,17l-1,150c0,18-15,33-33,33l-142-1c-18,0-32-15-32-33l1-150
				c0-10-7-18-17-18s-18,7-18,17l-1,150c0,37,30,69,67,69l141,1h1c37,0,68-30,68-67l1-151C394,168,387,161,377,161z"/>
		</g>
	</g>
</g>
<g>
</g>
<g>
</g>
<g>
</g>
<g>
</g>
<g>
</g>
<g>
</g>
<g>
</g>
<g>
</g>
<g>
</g>
<g>
</g>
<g>
</g>
<g>
</g>
<g>
</g>
<g>
</g>
<g>
</g>
</svg>
