<?xml version="1.0" encoding="iso-8859-1"?>
<!-- Generator: Adobe Illustrator 18.1.1, SVG Export Plug-In . SVG Version: 6.00 Build 0)  -->
<svg version="1.1" id="Capa_1" xmlns="http://www.w3.org/2000/svg" xmlns:xlink="http://www.w3.org/1999/xlink" x="0px" y="0px"
	 viewBox="0 0 504 504" style="enable-background:new 0 0 504 504;" xml:space="preserve">
<g>
	<g>
		<path style="fill:#010002;" d="M460,105.5H43c-26,0-43,18-43,45v204c0,27,17,44,43,44h417c26,0,44-17,44-44v-204
			C504,123.5,486,105.5,460,105.5z M471,354.5c0,10-4,12-11,12H43c-7,0-10-2-10-12v-204c0-11,4-12,10-12h417c6,0,11,1,11,12V354.5z"
			/>
		<path style="fill:#010002;" d="M434,154.5H124c-6,0-11,5-11,11v173c0,6,5,11,11,11h310c6,0,11-5,11-11v-173
			C445,159.5,440,154.5,434,154.5z M423,328.5H135v-152h288V328.5z"/>
		<path style="fill:#010002;" d="M74,227.5c-13,0-24,12-24,25s11,24,24,24s25-11,25-24S87,227.5,74,227.5z"/>
	</g>
</g>
<g>
</g>
<g>
</g>
<g>
</g>
<g>
</g>
<g>
</g>
<g>
</g>
<g>
</g>
<g>
</g>
<g>
</g>
<g>
</g>
<g>
</g>
<g>
</g>
<g>
</g>
<g>
</g>
<g>
</g>
</svg>
