<?xml version="1.0" encoding="iso-8859-1"?>
<!-- Generator: Adobe Illustrator 18.1.1, SVG Export Plug-In . SVG Version: 6.00 Build 0)  -->
<svg version="1.1" id="Capa_1" xmlns="http://www.w3.org/2000/svg" xmlns:xlink="http://www.w3.org/1999/xlink" x="0px" y="0px"
	 viewBox="0 0 504 504" style="enable-background:new 0 0 504 504;" xml:space="preserve">
<g>
	<g>
		<g>
			<path style="fill:#010002;" d="M354.5,0h-204c-27,0-45,17-45,43v417c0,26,18,44,45,44h204c27,0,44-18,44-44V43
				C398.5,17,381.5,0,354.5,0z M366.5,460c0,7-2,11-12,11h-204c-11,0-12-5-12-11V43c0-6,1-10,12-10h204c10,0,12,3,12,10V460z"/>
			<path style="fill:#010002;" d="M338.5,59h-173c-6,0-11,5-11,11v310c0,6,5,11,11,11h173c6,0,11-5,11-11V70
				C349.5,64,344.5,59,338.5,59z M328.5,369h-152V81h152V369z"/>
			<path style="fill:#010002;" d="M252.5,405c-13,0-25,12-25,25s12,24,25,24s24-11,24-24S265.5,405,252.5,405z"/>
		</g>
	</g>
</g>
<g>
</g>
<g>
</g>
<g>
</g>
<g>
</g>
<g>
</g>
<g>
</g>
<g>
</g>
<g>
</g>
<g>
</g>
<g>
</g>
<g>
</g>
<g>
</g>
<g>
</g>
<g>
</g>
<g>
</g>
</svg>
