<?xml version="1.0" encoding="iso-8859-1"?>
<!-- Generator: Adobe Illustrator 18.1.1, SVG Export Plug-In . SVG Version: 6.00 Build 0)  -->
<svg version="1.1" id="Capa_1" xmlns="http://www.w3.org/2000/svg" xmlns:xlink="http://www.w3.org/1999/xlink" x="0px" y="0px"
	 viewBox="0 0 478 478" style="enable-background:new 0 0 478 478;" xml:space="preserve">
<g>
	<g>
		<path style="fill:#010002;" d="M470.5,225l-73-73c-9-9-22-9-30,0c-9,9-9,22,0,31l35,36h-141V75l35,35c4,4,10,6,16,6s11-2,15-6
			c9-9,9-22,0-31l-72-72c-4-4-10-7-16-7s-11,3-15,7l-73,72c-9,9-9,22,0,31s23,9,31,0l35-35v144h-141l35-36c9-9,9-22,0-31s-22-9-31,0
			l-72,73c-4,4-7,9-7,15s3,12,7,16l72,73c4,4,10,6,16,6s11-3,15-7c9-9,9-21,0-30l-35-36h141v141l-35-35c-9-9-22-8-31,0
			c-9,9-9,23,0,31l73,72c4,4,9,7,15,7s12-3,16-7l72-72c9-9,9-23,0-31c-9-9-23-9-31,0l-35,35V262h141l-35,36c-9,9-9,21,0,30
			c4,4,9,7,15,7s11-2,15-6l73-73c4-4,6-10,6-16S474.5,229,470.5,225z"/>
	</g>
</g>
<g>
</g>
<g>
</g>
<g>
</g>
<g>
</g>
<g>
</g>
<g>
</g>
<g>
</g>
<g>
</g>
<g>
</g>
<g>
</g>
<g>
</g>
<g>
</g>
<g>
</g>
<g>
</g>
<g>
</g>
</svg>
