<?xml version="1.0" encoding="iso-8859-1"?>
<!-- Generator: Adobe Illustrator 18.1.1, SVG Export Plug-In . SVG Version: 6.00 Build 0)  -->
<svg version="1.1" id="Capa_1" xmlns="http://www.w3.org/2000/svg" xmlns:xlink="http://www.w3.org/1999/xlink" x="0px" y="0px"
	 viewBox="0 0 475 475" style="enable-background:new 0 0 475 475;" xml:space="preserve">
<g>
	<path style="fill:#010002;" d="M415.5,127L295.5,7c-4-4-9-7-15-7h-206c-12,0-22,10-22,22v432c0,12,10,21,22,21h326c12,0,22-9,22-21
		V142C422.5,136,419.5,131,415.5,127z M378.5,432h-282V44h129v129c0,12,10,22,22,22h131V432z M269.5,151V44h2l107,107H269.5z"/>
</g>
<g>
</g>
<g>
</g>
<g>
</g>
<g>
</g>
<g>
</g>
<g>
</g>
<g>
</g>
<g>
</g>
<g>
</g>
<g>
</g>
<g>
</g>
<g>
</g>
<g>
</g>
<g>
</g>
<g>
</g>
</svg>
