<?xml version="1.0" encoding="iso-8859-1"?>
<!-- Generator: Adobe Illustrator 18.1.1, SVG Export Plug-In . SVG Version: 6.00 Build 0)  -->
<svg version="1.1" id="Capa_1" xmlns="http://www.w3.org/2000/svg" xmlns:xlink="http://www.w3.org/1999/xlink" x="0px" y="0px"
	 viewBox="0 0 413.686 413.686" style="enable-background:new 0 0 413.686 413.686;" xml:space="preserve">
<g>
	<g>
		<g>
			<path style="fill:#090509;" d="M279.843,189.686l-234-185c-16-12-35,1-35,17v370c0,11,9,22,22,22c5,0,9-2,13-5l234-185
				c5-4,9-10,9-17C288.843,199.686,284.843,193.686,279.843,189.686z M53.843,346.686v-280l178,140L53.843,346.686z"/>
			<path style="fill:#090509;" d="M378.843,5.686c-14,0-25,11-25,25v356c0,14,11,25,25,25s24-11,24-25v-356
				C402.843,16.686,392.843,5.686,378.843,5.686z"/>
		</g>
	</g>
</g>
<g>
</g>
<g>
</g>
<g>
</g>
<g>
</g>
<g>
</g>
<g>
</g>
<g>
</g>
<g>
</g>
<g>
</g>
<g>
</g>
<g>
</g>
<g>
</g>
<g>
</g>
<g>
</g>
<g>
</g>
</svg>
