<?xml version="1.0" encoding="iso-8859-1"?>
<!-- Generator: Adobe Illustrator 18.1.1, SVG Export Plug-In . SVG Version: 6.00 Build 0)  -->
<svg version="1.1" id="Capa_1" xmlns="http://www.w3.org/2000/svg" xmlns:xlink="http://www.w3.org/1999/xlink" x="0px" y="0px"
	 viewBox="0 0 494.465 494.465" style="enable-background:new 0 0 494.465 494.465;" xml:space="preserve">
<g>
	<g>
		<path style="fill:#090509;" d="M465.233,0.465l-287,61c-10,2-17,11-17,21l-2,257c-16-10-35-15-56-15h-1c-55,0-99,37-99,84
			s44,86,99,86h1c55,0,99-37,99-84l2-224l243-52l-1,144c-16-10-35-15-56-15h-1c-55,0-100,37-100,84s44,86,99,86h1c50,0,92-32,99-74
			c1-2,1-4,1-6l2-331C491.233,9.465,479.233-2.535,465.233,0.465z M103.233,451.465h-1c-31,0-56-19-56-42s25-42,56-42h1
			c31,0,56,19,56,42S134.233,451.465,103.233,451.465z M389.233,389.465c-31,0-56-19-56-42s25-41,56-41s56,19,56,42
			S420.233,389.465,389.233,389.465z M447.233,101.465l-243,52l1-53l243-52L447.233,101.465z"/>
	</g>
</g>
<g>
</g>
<g>
</g>
<g>
</g>
<g>
</g>
<g>
</g>
<g>
</g>
<g>
</g>
<g>
</g>
<g>
</g>
<g>
</g>
<g>
</g>
<g>
</g>
<g>
</g>
<g>
</g>
<g>
</g>
</svg>
