<?xml version="1.0" encoding="iso-8859-1"?>
<!-- Generator: Adobe Illustrator 18.1.1, SVG Export Plug-In . SVG Version: 6.00 Build 0)  -->
<svg version="1.1" id="Capa_1" xmlns="http://www.w3.org/2000/svg" xmlns:xlink="http://www.w3.org/1999/xlink" x="0px" y="0px"
	 viewBox="0 0 792 792" style="enable-background:new 0 0 792 792;" xml:space="preserve">
<g>
	<g>
		<g>
			<path style="fill:#090509;" d="M414,176H168c0-30,6-79,31-107c15-17,36-26,64-26c41,0,68,19,83,58c4,11,17,17,28,13s17-18,13-29
				C366,29,323,0,263,0c-40,0-73,13-97,40c-37,41-42,102-42,136h-13c-12,0-21,9-21,21v275c0,12,9,22,21,22h303c12,0,22-10,22-22V197
				C436,185,426,176,414,176z M393,451H133V219h260V451z"/>
			<path style="fill:#090509;" d="M224,405h78c7,0,14-7,11-15l-22-55c4-6,10-18,10-29c0-20-14-41-38-41s-37,21-37,41
				c0,11,6,23,10,29l-22,55C211,398,217,405,224,405z M256,326c-2-3-8-13-8-20c0,0,0-20,15-20s16,20,16,20c0,7-6,17-8,20s-3,7-2,11
				l18,46h-47l18-46C259,333,259,329,256,326z"/>
		</g>
	</g>
</g>
<g>
</g>
<g>
</g>
<g>
</g>
<g>
</g>
<g>
</g>
<g>
</g>
<g>
</g>
<g>
</g>
<g>
</g>
<g>
</g>
<g>
</g>
<g>
</g>
<g>
</g>
<g>
</g>
<g>
</g>
</svg>
