<?xml version="1.0" encoding="iso-8859-1"?>
<!-- Generator: Adobe Illustrator 18.1.1, SVG Export Plug-In . SVG Version: 6.00 Build 0)  -->
<svg version="1.1" id="Capa_1" xmlns="http://www.w3.org/2000/svg" xmlns:xlink="http://www.w3.org/1999/xlink" x="0px" y="0px"
	 viewBox="0 0 431.924 431.924" style="enable-background:new 0 0 431.924 431.924;" xml:space="preserve">
<g>
	<g>
		<path style="fill:#090509;" d="M396.023,170.924l-164-164c-8-8-22-10-31-1l-166,165c-14,14-2,38,16,38h74v201c0,12,10,22,22,22
			h138c12,0,22-10,22-22v-201h74c11,0,22-9,22-22C403.023,180.924,400.023,174.924,396.023,170.924z M285.023,164.924
			c-12,0-22,10-22,22v201h-94v-201c0-12-10-22-22-22h-44l113-112l112,112H285.023z"/>
	</g>
</g>
<g>
</g>
<g>
</g>
<g>
</g>
<g>
</g>
<g>
</g>
<g>
</g>
<g>
</g>
<g>
</g>
<g>
</g>
<g>
</g>
<g>
</g>
<g>
</g>
<g>
</g>
<g>
</g>
<g>
</g>
</svg>
