<?xml version="1.0" encoding="iso-8859-1"?>
<!-- Generator: Adobe Illustrator 18.1.1, SVG Export Plug-In . SVG Version: 6.00 Build 0)  -->
<svg version="1.1" id="Capa_1" xmlns="http://www.w3.org/2000/svg" xmlns:xlink="http://www.w3.org/1999/xlink" x="0px" y="0px"
	 viewBox="0 0 475.274 475.274" style="enable-background:new 0 0 475.274 475.274;" xml:space="preserve">
<g>
	<g>
		<path style="fill:#090509;" d="M460.446,60.137l-57-49c-7-7-17-11-27-11c-12,0-25,6-33,15l-55,70c-16,17-14,46,4,59l28,19
			c-3,10-18,38-69,89c-51,50-79,66-89,69l-19-28c-6-10-19-15-31-15c-10,0-20,4-28,11l-70,55c-18,15-19,44-4,60l49,57
			c9,10,23,14,42,14c58,0,160-43,245-128c48-48,87-107,110-165C467.446,155.137,490.446,86.137,460.446,60.137z M315.446,316.137
			c-80,80-173,116-214,116c-6,0-9-1-10-1l-47-54l67-54l18,27c6,9,18,15,30,15c27,0,69-28,123-82c56-56,83-97,82-125
			c-1-11-6-22-15-28l-27-18l54-68l54,48C439.446,111.137,411.446,220.137,315.446,316.137z"/>
	</g>
</g>
<g>
</g>
<g>
</g>
<g>
</g>
<g>
</g>
<g>
</g>
<g>
</g>
<g>
</g>
<g>
</g>
<g>
</g>
<g>
</g>
<g>
</g>
<g>
</g>
<g>
</g>
<g>
</g>
<g>
</g>
</svg>
