<?xml version="1.0" encoding="iso-8859-1"?>
<!-- Generator: Adobe Illustrator 18.1.1, SVG Export Plug-In . SVG Version: 6.00 Build 0)  -->
<svg version="1.1" id="Capa_1" xmlns="http://www.w3.org/2000/svg" xmlns:xlink="http://www.w3.org/1999/xlink" x="0px" y="0px"
	 viewBox="0 0 413.686 413.686" style="enable-background:new 0 0 413.686 413.686;" xml:space="preserve">
<g>
	<g>
		<g>
			<path style="fill:#010002;" d="M369.843,4.686l-235,185c-5,4-8,10-8,17s3,13,8,17l235,185c4,3,8,5,13,5c13,0,22-11,22-22v-370
				C404.843,5.686,385.843-7.314,369.843,4.686z M360.843,346.686l-177-140l177-140V346.686z"/>
			<path style="fill:#010002;" d="M32.843,5.686c-14,0-24,11-24,25v356c0,14,10,25,24,25s25-11,25-25v-356
				C57.843,16.686,46.843,5.686,32.843,5.686z"/>
		</g>
	</g>
</g>
<g>
</g>
<g>
</g>
<g>
</g>
<g>
</g>
<g>
</g>
<g>
</g>
<g>
</g>
<g>
</g>
<g>
</g>
<g>
</g>
<g>
</g>
<g>
</g>
<g>
</g>
<g>
</g>
<g>
</g>
</svg>
