<?xml version="1.0" encoding="iso-8859-1"?>
<!-- Generator: Adobe Illustrator 18.1.1, SVG Export Plug-In . SVG Version: 6.00 Build 0)  -->
<svg version="1.1" id="Capa_1" xmlns="http://www.w3.org/2000/svg" xmlns:xlink="http://www.w3.org/1999/xlink" x="0px" y="0px"
	 viewBox="0 0 510 510" style="enable-background:new 0 0 510 510;" xml:space="preserve">
<g>
	<g>
		<g>
			<path style="fill:#010002;" d="M488,93H377V27c0-7-7-14-14-14H147c-7,0-14,7-14,14v66H22c-12,0-22,10-22,22v254c0,12,10,21,22,21
				h84l-13,88c-2,10,7,19,16,19h292c9,0,16-8,16-17v-4l-14-86h85c12,0,22-9,22-21V115C510,103,500,93,488,93z M160,40h190v53H160V40
				z M128,464l22-144h210l22,144H128z M467,347h-70l-7-46c-1-8-8-14-16-14H136c-8,0-15,6-16,14l-7,46H43V136h424V347z"/>
			<path style="fill:#010002;" d="M118,208h52c9,0,16-7,16-16s-7-16-16-16h-52c-9,0-16,7-16,16S109,208,118,208z"/>
		</g>
	</g>
</g>
<g>
</g>
<g>
</g>
<g>
</g>
<g>
</g>
<g>
</g>
<g>
</g>
<g>
</g>
<g>
</g>
<g>
</g>
<g>
</g>
<g>
</g>
<g>
</g>
<g>
</g>
<g>
</g>
<g>
</g>
</svg>
