<?xml version="1.0" encoding="iso-8859-1"?>
<!-- Generator: Adobe Illustrator 18.1.1, SVG Export Plug-In . SVG Version: 6.00 Build 0)  -->
<svg version="1.1" id="Capa_1" xmlns="http://www.w3.org/2000/svg" xmlns:xlink="http://www.w3.org/1999/xlink" x="0px" y="0px"
	 viewBox="0 0 510 510" style="enable-background:new 0 0 510 510;" xml:space="preserve">
<g>
	<g>
		<g>
			<path style="fill:#090509;" d="M447,246c-41-41-99-64-171-67v-63c0-15-19-25-31-13L106,242c-8,8-7,20,0,26l139,139
				c12,12,31,2,31-13v-64h17c53,0,147,9,183,73c3,6,9,9,15,9c11,0,19-9,19-18C510,391,509,308,447,246z M293,293c-22,0-36,2-37,2
				c-9,1-16,9-16,18v37l-95-95l95-95v37c0,10,8,18,18,18c134,0,185,69,204,121C410,300,338,293,293,293z"/>
			<path style="fill:#090509;" d="M44,255l126-126c7-7,7-19,0-26s-19-7-26,0L5,242c-4,4-5,8-5,13c0,5,1,9,5,13l139,139
				c7,7,19,7,26,0s7-19,0-26L44,255z"/>
		</g>
	</g>
</g>
<g>
</g>
<g>
</g>
<g>
</g>
<g>
</g>
<g>
</g>
<g>
</g>
<g>
</g>
<g>
</g>
<g>
</g>
<g>
</g>
<g>
</g>
<g>
</g>
<g>
</g>
<g>
</g>
<g>
</g>
</svg>
