<?xml version="1.0" encoding="iso-8859-1"?>
<!-- Generator: Adobe Illustrator 18.1.1, SVG Export Plug-In . SVG Version: 6.00 Build 0)  -->
<svg version="1.1" id="Capa_1" xmlns="http://www.w3.org/2000/svg" xmlns:xlink="http://www.w3.org/1999/xlink" x="0px" y="0px"
	 viewBox="0 0 490 490" style="enable-background:new 0 0 490 490;" xml:space="preserve">
<g>
	<g>
		<g>
			<path style="fill:#010002;" d="M467,105.5H155c-6,0-11,2-15,6L8,228.5c-5,4-8,10-8,17s3,13,8,17l132,117c4,4,9,5,15,5h312
				c13,0,23-10,23-23v-232C490,116.5,480,105.5,467,105.5z M444,338.5H164l-106-93l106-93h280V338.5z"/>
			<path style="fill:#010002;" d="M131,245.5c0,18,15,33,33,33s34-15,34-33s-16-33-34-33S131,227.5,131,245.5z"/>
		</g>
	</g>
</g>
<g>
</g>
<g>
</g>
<g>
</g>
<g>
</g>
<g>
</g>
<g>
</g>
<g>
</g>
<g>
</g>
<g>
</g>
<g>
</g>
<g>
</g>
<g>
</g>
<g>
</g>
<g>
</g>
<g>
</g>
</svg>
