<?xml version="1.0" encoding="iso-8859-1"?>
<!-- Generator: Adobe Illustrator 18.1.1, SVG Export Plug-In . SVG Version: 6.00 Build 0)  -->
<svg version="1.1" id="Capa_1" xmlns="http://www.w3.org/2000/svg" xmlns:xlink="http://www.w3.org/1999/xlink" x="0px" y="0px"
	 viewBox="0 0 489 489" style="enable-background:new 0 0 489 489;" xml:space="preserve">
<g>
	<g>
		<path style="fill:#010002;" d="M478,82.5l-112-52c-2-1-5-1-8-1s-6,0-8,1l-105,49l-105-49c-2-1-5-1-8-1s-6,0-8,1l-113,52
			c-7,3-11,11-11,18v340c0,10,8,19,19,19c3,0,5-1,8-2l105-48l105,48c2,1,5,2,8,2s6-1,8-2l105-48l104,48c3,1,5,2,8,2c11,0,19-9,19-19
			v-340C489,93.5,485,85.5,478,82.5z M113,376.5l-75,34v-298l75-35V376.5z M226,410.5l-75-34v-299l75,35V410.5z M339,376.5l-75,34
			v-298l75-35V376.5z M451,410.5l-74-34v-299l74,35V410.5z"/>
	</g>
</g>
<g>
</g>
<g>
</g>
<g>
</g>
<g>
</g>
<g>
</g>
<g>
</g>
<g>
</g>
<g>
</g>
<g>
</g>
<g>
</g>
<g>
</g>
<g>
</g>
<g>
</g>
<g>
</g>
<g>
</g>
</svg>
