<?xml version="1.0" encoding="iso-8859-1"?>
<!-- Generator: Adobe Illustrator 18.1.1, SVG Export Plug-In . SVG Version: 6.00 Build 0)  -->
<svg version="1.1" id="Capa_1" xmlns="http://www.w3.org/2000/svg" xmlns:xlink="http://www.w3.org/1999/xlink" x="0px" y="0px"
	 viewBox="0 0 504 504" style="enable-background:new 0 0 504 504;" xml:space="preserve">
<g>
	<g>
		<g>
			<path style="fill:#010002;" d="M404,0H100C74,0,58,16,58,41v422c0,25,16,41,42,41h304c26,0,42-16,42-41V41C446,16,430,0,404,0z
				 M414,463c0,5,0,8-10,8H100c-10,0-10-3-10-8V41c0-5,0-8,10-8h304c10,0,10,3,10,8V463z"/>
			<path style="fill:#010002;" d="M382,59H122c-6,0-11,5-11,11v329c0,6,5,11,11,11h260c6,0,11-5,11-11V70C393,64,388,59,382,59z
				 M371,388H133V81h238V388z"/>
			<path style="fill:#010002;" d="M238,428c-4,4-5,8-5,13c0,10,9,19,19,19s19-9,19-19c0-5-2-9-6-13C258,421,245,421,238,428z"/>
		</g>
	</g>
</g>
<g>
</g>
<g>
</g>
<g>
</g>
<g>
</g>
<g>
</g>
<g>
</g>
<g>
</g>
<g>
</g>
<g>
</g>
<g>
</g>
<g>
</g>
<g>
</g>
<g>
</g>
<g>
</g>
<g>
</g>
</svg>
