<?xml version="1.0" encoding="iso-8859-1"?>
<!-- Generator: Adobe Illustrator 18.1.1, SVG Export Plug-In . SVG Version: 6.00 Build 0)  -->
<svg version="1.1" id="Capa_1" xmlns="http://www.w3.org/2000/svg" xmlns:xlink="http://www.w3.org/1999/xlink" x="0px" y="0px"
	 viewBox="0 0 504 504" style="enable-background:new 0 0 504 504;" xml:space="preserve">
<g>
	<g>
		<g>
			<path style="fill:#090509;" d="M463,58H41C16,58,0,74,0,100v304c0,26,16,42,41,42h422c25,0,41-16,41-42V100C504,74,488,58,463,58
				z M471,404c0,10-3,10-8,10H41c-5,0-8,0-8-10V100c0-10,3-10,8-10h422c5,0,8,0,8,10V404z"/>
			<path style="fill:#090509;" d="M434,111H105c-6,0-11,5-11,11v260c0,6,5,11,11,11h329c6,0,11-5,11-11V122C445,116,440,111,434,111
				z M423,371H116V133h307V371z"/>
			<path style="fill:#090509;" d="M63,233c-10,0-19,9-19,19s9,19,19,19c5,0,9-2,13-6c7-7,7-20,0-27C72,234,68,233,63,233z"/>
		</g>
	</g>
</g>
<g>
</g>
<g>
</g>
<g>
</g>
<g>
</g>
<g>
</g>
<g>
</g>
<g>
</g>
<g>
</g>
<g>
</g>
<g>
</g>
<g>
</g>
<g>
</g>
<g>
</g>
<g>
</g>
<g>
</g>
</svg>
