<?xml version="1.0" encoding="iso-8859-1"?>
<!-- Generator: Adobe Illustrator 18.1.1, SVG Export Plug-In . SVG Version: 6.00 Build 0)  -->
<svg version="1.1" id="Capa_1" xmlns="http://www.w3.org/2000/svg" xmlns:xlink="http://www.w3.org/1999/xlink" x="0px" y="0px"
	 viewBox="0 0 475 475" style="enable-background:new 0 0 475 475;" xml:space="preserve">
<g>
	<g>
		<g>
			<path style="fill:#090509;" d="M169.5,138h129c11,0,20-8,20-19s-9-19-20-19h-129c-11,0-19,8-19,19S158.5,138,169.5,138z"/>
			<path style="fill:#090509;" d="M284.5,277c-4,4-5,9-5,14c0,10,9,19,19,19s19-9,19-19c0-5-2-10-6-14
				C304.5,270,291.5,270,284.5,277z"/>
			<path style="fill:#090509;" d="M169.5,224h129c11,0,20-8,20-19s-9-19-20-19h-129c-11,0-19,8-19,19S158.5,224,169.5,224z"/>
			<path style="fill:#090509;" d="M400.5,0h-326c-12,0-22,10-22,22v432c0,12,10,21,22,21h326c12,0,22-9,22-21V22
				C422.5,10,412.5,0,400.5,0z M378.5,432h-282V44h282V432z"/>
			<path style="fill:#090509;" d="M166.5,310h64c11,0,19-8,19-19s-8-19-19-19h-64c-11,0-19,8-19,19S155.5,310,166.5,310z"/>
		</g>
	</g>
</g>
<g>
</g>
<g>
</g>
<g>
</g>
<g>
</g>
<g>
</g>
<g>
</g>
<g>
</g>
<g>
</g>
<g>
</g>
<g>
</g>
<g>
</g>
<g>
</g>
<g>
</g>
<g>
</g>
<g>
</g>
</svg>
