<?xml version="1.0" encoding="iso-8859-1"?>
<!-- Generator: Adobe Illustrator 18.1.1, SVG Export Plug-In . SVG Version: 6.00 Build 0)  -->
<svg version="1.1" id="Capa_1" xmlns="http://www.w3.org/2000/svg" xmlns:xlink="http://www.w3.org/1999/xlink" x="0px" y="0px"
	 viewBox="0 0 466 466" style="enable-background:new 0 0 466 466;" xml:space="preserve">
<g>
	<g>
		<g>
			<path style="fill:#090509;" d="M377,126c-12,0-22,10-22,22v275H110V148c0-12-9-22-21-22s-22,10-22,22v297c0,12,10,21,22,21h288
				c12,0,22-9,22-21V148C399,136,389,126,377,126z"/>
			<path style="fill:#090509;" d="M431,56H301V13c0-8-5-13-13-13H178c-8,0-13,5-13,13v43H35c-12,0-22,10-22,22s10,21,22,21h396
				c12,0,22-9,22-21S443,56,431,56z M274,56h-82V27h82V56z"/>
			<path style="fill:#090509;" d="M181,377V163c0-8-6-14-14-14s-13,6-13,14v214c0,8,5,14,13,14S181,385,181,377z"/>
			<path style="fill:#090509;" d="M247,378V163c0-8-6-13-14-13s-14,5-14,13v215c0,8,6,13,14,13S247,386,247,378z"/>
			<path style="fill:#090509;" d="M311,378V164c0-8-5-14-13-14s-14,6-14,14v214c0,8,6,14,14,14S311,386,311,378z"/>
		</g>
	</g>
</g>
<g>
</g>
<g>
</g>
<g>
</g>
<g>
</g>
<g>
</g>
<g>
</g>
<g>
</g>
<g>
</g>
<g>
</g>
<g>
</g>
<g>
</g>
<g>
</g>
<g>
</g>
<g>
</g>
<g>
</g>
</svg>
