<?xml version="1.0" encoding="iso-8859-1"?>
<!-- Generator: Adobe Illustrator 18.1.1, SVG Export Plug-In . SVG Version: 6.00 Build 0)  -->
<svg version="1.1" id="Capa_1" xmlns="http://www.w3.org/2000/svg" xmlns:xlink="http://www.w3.org/1999/xlink" x="0px" y="0px"
	 viewBox="0 0 486 486" style="enable-background:new 0 0 486 486;" xml:space="preserve">
<g>
	<g>
		<path style="fill:#090509;" d="M452.5,285c15,0,27,12,27,27v147c0,15-12,27-27,27h-418c-15,0-28-12-28-27V312c0-15,13-27,28-27
			s27,12,27,27v119h364V312C425.5,297,437.5,285,452.5,285z"/>
		<path style="fill:#090509;" d="M152.5,156c-11,11-27,11-38,0s-11-27,0-38l110-110c5-5,12-8,19-8s14,3,19,8l110,110
			c11,11,11,27,0,38c-5,5-12,8-19,8s-15-3-20-8l-63-63v234c0,15-12,27-27,27s-27-12-27-27V93L152.5,156z"/>
	</g>
</g>
<g>
</g>
<g>
</g>
<g>
</g>
<g>
</g>
<g>
</g>
<g>
</g>
<g>
</g>
<g>
</g>
<g>
</g>
<g>
</g>
<g>
</g>
<g>
</g>
<g>
</g>
<g>
</g>
<g>
</g>
</svg>
