<?xml version="1.0" encoding="iso-8859-1"?>
<!-- Generator: Adobe Illustrator 18.1.1, SVG Export Plug-In . SVG Version: 6.00 Build 0)  -->
<svg version="1.1" id="Capa_1" xmlns="http://www.w3.org/2000/svg" xmlns:xlink="http://www.w3.org/1999/xlink" x="0px" y="0px"
	 viewBox="0 0 510 510" style="enable-background:new 0 0 510 510;" xml:space="preserve">
<g>
	<g>
		<g>
			<path style="fill:#090509;" d="M198,305c65,0,117-52,117-117S263,71,198,71S81,123,81,188S133,305,198,305z M198,111
				c42,0,76,35,76,77s-34,76-76,76s-77-34-77-76S156,111,198,111z"/>
			<path style="fill:#090509;" d="M251,309c-7-2-14,0-19,4l-34,29l-35-29c-5-4-12-6-19-4C110,320,0,360,0,419c0,11,9,20,20,20h355
				c11,0,20-9,20-20C395,360,285,320,251,309z M55,399c19-16,55-36,91-48l39,33c8,6,18,6,26,0l39-33c36,12,72,32,91,48H55z"/>
			<path style="fill:#090509;" d="M441,308c-8-4-16-1-20,7s-1,16,7,20c12,6,34,21,45,35h-54c-8,0-15,7-15,15s7,16,15,16h76
				c8,0,15-8,15-16C510,343,448,311,441,308z"/>
			<path style="fill:#090509;" d="M366,282c-12,0-24-5-33-14c-6-6-15-6-21,0s-6,16,0,22c15,15,33,22,54,22c42,0,77-35,77-77
				s-35-76-77-76c-16,0-46,5-38,25c3,8,12,12,20,9c6-2,12-4,18-4c26,0,47,20,47,46S392,282,366,282z"/>
		</g>
	</g>
</g>
<g>
</g>
<g>
</g>
<g>
</g>
<g>
</g>
<g>
</g>
<g>
</g>
<g>
</g>
<g>
</g>
<g>
</g>
<g>
</g>
<g>
</g>
<g>
</g>
<g>
</g>
<g>
</g>
<g>
</g>
</svg>
