<?xml version="1.0" encoding="iso-8859-1"?>
<!-- Generator: Adobe Illustrator 18.1.1, SVG Export Plug-In . SVG Version: 6.00 Build 0)  -->
<svg version="1.1" id="Capa_1" xmlns="http://www.w3.org/2000/svg" xmlns:xlink="http://www.w3.org/1999/xlink" x="0px" y="0px"
	 viewBox="0 0 510 510" style="enable-background:new 0 0 510 510;" xml:space="preserve">
<g>
	<g>
		<g>
			<path style="fill:#090509;" d="M126,103H41c-22,0-41,18-41,40v53c0,22,19,41,41,41h85c22,0,40-19,40-41v-53
				C166,121,148,103,126,103z M125,196H42v-52h83V196z"/>
			<path style="fill:#090509;" d="M469,103H243c-22,0-41,18-41,40v53c0,22,19,41,41,41h226c22,0,41-19,41-41v-53
				C510,121,491,103,469,103z M468,196H244v-52h224V196z"/>
			<path style="fill:#090509;" d="M126,273H41c-22,0-41,18-41,40v53c0,22,19,41,41,41h85c22,0,40-19,40-41v-53
				C166,291,148,273,126,273z M125,365H42v-51h83V365z"/>
			<path style="fill:#090509;" d="M469,273H243c-22,0-41,18-41,40v53c0,22,19,41,41,41h226c22,0,41-19,41-41v-53
				C510,291,491,273,469,273z M468,365H244v-51h224V365z"/>
		</g>
	</g>
</g>
<g>
</g>
<g>
</g>
<g>
</g>
<g>
</g>
<g>
</g>
<g>
</g>
<g>
</g>
<g>
</g>
<g>
</g>
<g>
</g>
<g>
</g>
<g>
</g>
<g>
</g>
<g>
</g>
<g>
</g>
</svg>
