<?xml version="1.0" encoding="iso-8859-1"?>
<!-- Generator: Adobe Illustrator 18.1.1, SVG Export Plug-In . SVG Version: 6.00 Build 0)  -->
<svg version="1.1" id="Capa_1" xmlns="http://www.w3.org/2000/svg" xmlns:xlink="http://www.w3.org/1999/xlink" x="0px" y="0px"
	 viewBox="0 0 474.351 474.351" style="enable-background:new 0 0 474.351 474.351;" xml:space="preserve">
<g>
	<g>
		<path style="fill:#090509;" d="M444.175,16.351c-9-9-22-9-30,0l-77,76v-71c0-18-23-29-37-15l-112,112h-56c-12,0-22,10-22,22v180
			l-80,80c-9,9-9,22,0,31c4,4,9,6,15,6s11-2,15-6l76-76h52l112,113c4,4,10,6,16,6c13,0,21-10,21-21v-299l107-107
			C453.175,38.351,453.175,25.351,444.175,16.351z M294.175,400.351l-82-82c-4-4-9-6-15-6h-17l114-115V400.351z M294.175,136.351
			l-141,140v-114h44c6,0,11-2,15-6l82-82V136.351z"/>
	</g>
</g>
<g>
</g>
<g>
</g>
<g>
</g>
<g>
</g>
<g>
</g>
<g>
</g>
<g>
</g>
<g>
</g>
<g>
</g>
<g>
</g>
<g>
</g>
<g>
</g>
<g>
</g>
<g>
</g>
<g>
</g>
</svg>
