<?xml version="1.0" encoding="iso-8859-1"?>
<!-- Generator: Adobe Illustrator 18.1.1, SVG Export Plug-In . SVG Version: 6.00 Build 0)  -->
<svg version="1.1" id="Capa_1" xmlns="http://www.w3.org/2000/svg" xmlns:xlink="http://www.w3.org/1999/xlink" x="0px" y="0px"
	 viewBox="0 0 432.853 432.853" style="enable-background:new 0 0 432.853 432.853;" xml:space="preserve">
<g>
	<g>
		<path style="fill:#090509;" d="M268.706,432.853c-17,0-31-14-30-31c3-73-14-129-52-164c-60-56-151-46-152-46c-16,2-31-10-33-26
			s10-31,26-33c5-1,120-12,200,62c51,48,75,117,71,209C297.706,419.853,284.706,432.853,268.706,432.853z M4.706,361.853
			c0-39,31-71,70-71s71,32,71,71c0,38-32,70-71,70C36.706,431.853,4.706,400.853,4.706,361.853z M400.706,432.853c-17,0-31-14-30-31
			c5-119-24-208-86-266c-98-91-249-74-250-74c-16,2-31-10-33-26s10-32,26-34c7-1,180-20,298,90c76,70,111,175,105,312
			C429.706,419.853,416.706,432.853,400.706,432.853z"/>
	</g>
</g>
<g>
</g>
<g>
</g>
<g>
</g>
<g>
</g>
<g>
</g>
<g>
</g>
<g>
</g>
<g>
</g>
<g>
</g>
<g>
</g>
<g>
</g>
<g>
</g>
<g>
</g>
<g>
</g>
<g>
</g>
</svg>
